<svg version="1.1" viewBox="0 0 16 16" xmlns="http://www.w3.org/2000/svg">
    <g fill="none" stroke="currentColor" stroke-linecap="round" stroke-linejoin="round" stroke-width="1px">
        <path d="m10.5 8a2.5 2.5 0 0 1-2.5 2.5 2.5 2.5 0 0 1-2.5-2.5 2.5 2.5 0 0 1 2.5-2.5 2.5 2.5 0 0 1 2.5 2.5z"/>
        <path d="m13 11 1.5 1.5-2 2-1.5-1.5-1.5 0.5v2h-3v-2l-1.5-0.5-1.5 1.5-2-2 1.5-1.5-0.5-1.5h-2v-3h2l0.5-1.5-1.5-1.5 2-2 1.5 1.5 1.5-0.5v-2h3v2l1.5 0.5 1.5-1.5 2 2-1.5 1.5 0.5 1.5h2v3h-2z"/>
    </g>
</svg>
