<svg version="1.1" viewBox="0 0 16 16" xml:space="preserve" xmlns="http://www.w3.org/2000/svg"><path d="m8 0c-1.0986 0-2 0.90134-2 2v0.0039c0.00432 0.57891 0.34229 0.98655 0.62109 1.3145 0.2788 0.32791 0.55469 0.5625 0.55469 0.5625l0.11719 0.11915-1.293 1.293-1.1465-1.1465s-0.1585-0.15905-0.38867-0.3125c-0.23017-0.15345-0.54818-0.33398-0.96484-0.33398-1.0986 0-2 0.90134-2 2 0 0.41666 0.18054 0.73468 0.33398 0.96484 0.15345 0.23017 0.3125 0.38867 0.3125 0.38867l1.1445 1.1484-1.1445 1.1445s-0.15905 0.1585-0.3125 0.38867c-0.15345 0.23017-0.33398 0.54818-0.33398 0.96484-1e-7 1.0987 0.90137 2 2 2 0.41667 0 0.73468-0.18054 0.96484-0.33398 0.23017-0.15345 0.38867-0.3125 0.38867-0.3125l1.1426-1.1426 1.291 1.2949-0.11133 0.11328s-0.27686 0.23397-0.55664 0.5625c-0.27944 0.32813-0.61984 0.73712-0.61914 1.3184 0 1.0987 0.90137 2 2 2 1.0987 0 2-0.90137 2-2 2.7e-4 -0.584-0.34453-0.98845-0.62695-1.3164-0.26722-0.31031-0.50348-0.50967-0.53125-0.5332l-0.14258-0.14258 1.3008-1.3008 1.1465 1.1465s0.1585 0.15905 0.38867 0.3125c0.23017 0.15345 0.54818 0.33398 0.96484 0.33398 1.0987 0 2-0.90137 2-2 0-0.41667-0.18054-0.73468-0.33398-0.96484-0.15345-0.23017-0.3125-0.38867-0.3125-0.38867l-1.1465-1.1465 1.1465-1.1465s0.15905-0.1585 0.3125-0.38867c0.15345-0.23017 0.33398-0.54818 0.33398-0.96484 0-1.0986-0.90134-2-2-2-0.41666 0-0.73468 0.18054-0.96484 0.33398-0.23017 0.15345-0.38867 0.3125-0.38867 0.3125l-1.1465 1.1465-1.293-1.293 0.11719-0.11914s0.27816-0.23539 0.55859-0.56445c0.27994-0.32848 0.61997-0.73712 0.61523-1.3203-0.0025623-1.0965-0.90095-1.9961-1.998-1.9961zm0 1c0.55822 1e-7 1 0.44181 1 1v0.00586c6.197e-4 0.060608-0.1577 0.40254-0.37891 0.66211-0.22121 0.25957-0.44531 0.45117-0.44531 0.45117l-0.015625 0.013672-0.16016 0.16016-0.16016-0.16016-0.015625-0.013672s-0.22144-0.18855-0.44141-0.44727c-0.21949-0.25814-0.38155-0.59821-0.38281-0.67383 0.0010399-0.55728 0.44247-0.99805 1-0.99805zm-4.5 3.5c0.083333 0 0.26533 0.069463 0.41016 0.16602 0.14483 0.096553 0.23633 0.1875 0.23633 0.1875l1.1465 1.1465-1.2949 1.2949-1.1445-1.1484s-0.090946-0.091498-0.1875-0.23633c-0.096554-0.14483-0.16602-0.32683-0.16602-0.41016-1e-7 -0.55822 0.44181-1 1-1zm9 0c0.55822 0 1 0.44181 1 1 0 0.083333-0.06946 0.26533-0.16602 0.41016-0.09655 0.14483-0.1875 0.23633-0.1875 0.23633l-1.1465 1.1465-1.293-1.293 1.1465-1.1465s0.0915-0.090946 0.23633-0.1875c0.14483-0.096554 0.32683-0.16602 0.41016-0.16602zm-4.5 0.20703 1.293 1.293-1.293 1.293-1.293-1.293zm-2 2 1.293 1.293-1.2969 1.2969-1.291-1.2949zm4 0 1.293 1.293-1.293 1.293-1.293-1.293zm-2 2 1.293 1.293-1.2988 1.2988-1.293-1.293zm4 0 1.1465 1.1465s0.09095 0.091501 0.1875 0.23633c0.096553 0.14483 0.16602 0.32682 0.16602 0.41016 0 0.55819-0.44178 1-1 1-0.08333 0-0.26533-0.06946-0.41016-0.16602-0.14483-0.09655-0.23633-0.1875-0.23633-0.1875l-1.1465-1.1465zm-8.002 0.00195 1.291 1.2949-1.1426 1.1426s-0.091501 0.09095-0.23633 0.1875c-0.14483 0.096556-0.32682 0.16602-0.41016 0.16602-0.55819 0-1-0.44178-1-1 0-0.08333 0.069462-0.26533 0.16602-0.41016 0.096554-0.14483 0.1875-0.23633 0.1875-0.23633zm3.9961 4.0039 0.15625 0.1582 0.015625 0.01367s0.22587 0.1918 0.44922 0.45117c0.22335 0.25937 0.38479 0.60328 0.38477 0.66407 0 0.55819-0.44178 1-1 1-0.55819 0-1-0.44178-1-1v-2e-3c-1.768e-4 -0.06716 0.16022-0.40888 0.38086-0.66797 0.22064-0.25908 0.44336-0.44922 0.44336-0.44922l0.015625-0.01367z" color="#000000" style="-inkscape-stroke:none"/></svg>
