<svg version="1.1" viewBox="0 0 16 16" xml:space="preserve" xmlns="http://www.w3.org/2000/svg"><path d="m8.5 12.5-6-6s-0.5-0.5-0.5-0.99999c-1e-7 -0.82844 0.67159-1.5 1.5-1.5 0.5 0 0.99999 0.5 0.99999 0.5l7.0001 7.0001s0.49999 0.5 0.99999 0.5c0.82844 0 1.5-0.67159 1.5-1.5 0-0.5-0.5-0.99999-0.5-0.99999l-6-6s-0.99511-0.84647-0.99999-1.5c0-0.82844 0.67159-1.5 1.5-1.5 0.82844 1.9e-7 1.5 0.67159 1.5 1.5 0.0066 0.64547-0.99999 1.5-0.99999 1.5l-6 6s-0.5 0.5-0.5 0.99999c-1e-7 0.82844 0.67159 1.5 1.5 1.5 0.5 0 0.99999-0.5 0.99999-0.5l7.0001-7.0001s0.5-0.5 0.99999-0.5c0.82844 0 1.5 0.67159 1.5 1.5 0 0.5-0.5 0.99999-0.5 0.99999l-6 6s-1.0017 0.85047-0.99999 1.5c0 0.82844 0.67159 1.5 1.5 1.5 0.82844 0 1.5-0.67159 1.5-1.5 2.98e-4 -0.64479-1.0226-1.4941-0.99999-1.5z" fill="none" stroke="#000" stroke-width="1px"/></svg>
