<svg version="1.1" viewBox="0 0 16 16" xmlns="http://www.w3.org/2000/svg">
    <path d="M 10.5,8 A 2.4999,2.4999 0 0 1 8.0001,10.4999 2.4999,2.4999 0 0 1 5.5002,8 2.4999,2.4999 0 0 1 8.0001,5.5001 2.4999,2.4999 0 0 1 10.5,8 Z" fill="none" stroke="#000" stroke-linecap="round"/>
    <path d="m9.5 2.5-1-2h-1l-1 2-1.3281 0.55078-2.1211-0.70703-0.70703 0.70703 0.70703 2.1211-0.55078 1.3281-2 1-0.001953 1 2 1 0.55273 1.3301-0.70703 2.1211 0.70703 0.70703 2.1211-0.70703 1.3281 0.55078 1 2h1l1-2 1.3301-0.55078 2.1211 0.70703 0.70703-0.70703-0.70703-2.1211 0.54492-1.3086 2.0039-0.99414 0.0039-1-1.9961-1.0059-0.54492-1.332 0.71484-2.1191-0.70508-0.70898-2.123 0.69922z" fill="none" stroke="#000" stroke-linecap="square" stroke-linejoin="round" stroke-width="1px"/>
</svg>
