<?xml version="1.0" encoding="UTF-8" standalone="no"?>
<svg
   version="1.1"
   viewBox="0 0 16 16"
   id="svg18"
   sodipodi:docname="polygon.svg"
   inkscape:version="1.2.2 (b0a8486541, 2022-12-01)"
   xmlns:inkscape="http://www.inkscape.org/namespaces/inkscape"
   xmlns:sodipodi="http://sodipodi.sourceforge.net/DTD/sodipodi-0.dtd"
   xmlns="http://www.w3.org/2000/svg"
   xmlns:svg="http://www.w3.org/2000/svg">
  <defs
     id="defs22" />
  <sodipodi:namedview
     id="namedview20"
     pagecolor="#ffffff"
     bordercolor="#000000"
     borderopacity="0.25"
     inkscape:showpageshadow="2"
     inkscape:pageopacity="0.0"
     inkscape:pagecheckerboard="0"
     inkscape:deskcolor="#d1d1d1"
     showgrid="true"
     inkscape:zoom="32"
     inkscape:cx="4.78125"
     inkscape:cy="12.453125"
     inkscape:window-width="1855"
     inkscape:window-height="1056"
     inkscape:window-x="0"
     inkscape:window-y="0"
     inkscape:window-maximized="1"
     inkscape:current-layer="svg18"
     showguides="true">
    <inkscape:grid
       type="xygrid"
       id="grid4262"
       spacingx="0.5"
       spacingy="0.5"
       color="#e50006"
       opacity="0.14901961"
       empspacing="2" />
  </sodipodi:namedview>
  <path
     id="rect5405"
     style="stroke-linecap:round;stroke-linejoin:round"
     d="M 0.5 0 C 0.22300056 0 0 0.22300056 0 0.5 L 0 2.5 C 0 2.7769994 0.22300056 3 0.5 3 L 1 3 L 1 7 L 0.5 7 C 0.22300056 7 0 7.2230006 0 7.5 L 0 9.5 C 0 9.7769994 0.22300056 10 0.5 10 L 2.5 10 C 2.7769994 10 3 9.7769994 3 9.5 L 3 9 L 6 9 L 6 9.5 C 6 9.7769997 6.2230006 10 6.5 10 L 7 10 L 7 13 L 6.5 13 C 6.2230006 13 6 13.223 6 13.5 L 6 15.5 C 6 15.777 6.2230006 16 6.5 16 L 8.5 16 C 8.7769994 16 9 15.777 9 15.5 L 9 15 L 13 15 L 13 15.5 C 13 15.777 13.223 16 13.5 16 L 15.5 16 C 15.777 16 16 15.777 16 15.5 L 16 13.5 C 16 13.223 15.777 13 15.5 13 L 15 13 L 15 3 L 15.5 3 C 15.777 3 16 2.7769994 16 2.5 L 16 0.5 C 16 0.22300056 15.777 0 15.5 0 L 13.5 0 C 13.223 0 13 0.22300056 13 0.5 L 13 1 L 3 1 L 3 0.5 C 3 0.22300056 2.7769994 0 2.5 0 L 0.5 0 z M 3 2 L 13 2 L 13 2.5 C 13 2.7769994 13.223 3 13.5 3 L 14 3 L 14 13 L 13.5 13 C 13.223 13 13 13.223 13 13.5 L 13 14 L 9 14 L 9 13.5 C 9 13.223 8.7769994 13 8.5 13 L 8 13 L 8 10 L 8.5 10 C 8.7769997 10 9 9.7769997 9 9.5 L 9 7.5 C 9 7.2230003 8.7769997 7 8.5 7 L 6.5 7 C 6.2230006 7 6 7.2230003 6 7.5 L 6 8 L 3 8 L 3 7.5 C 3 7.2230006 2.7769994 7 2.5 7 L 2 7 L 2 3 L 2.5 3 C 2.7769994 3 3 2.7769994 3 2.5 L 3 2 z " />
</svg>
